<svg xmlns="http://www.w3.org/2000/svg" width="512" height="512" viewBox="0 0 512 512" version="1.1">
	<path d="M 205.467 13.569 C 201.363 15.751, 199.195 16.167, 191.068 16.331 C 182.249 16.509, 180.991 16.796, 175 19.997 C 166.244 24.673, 154.760 36.379, 149.057 46.442 C 143.437 56.357, 140.443 64.859, 134.423 88 C 129.739 106.005, 129.621 106.821, 129.985 118.500 C 130.924 148.578, 130.825 149.757, 126.705 157.500 C 124.255 162.106, 119.030 168.775, 111.427 177 C 96.103 193.578, 91.960 201.440, 91.234 215.321 C 90.677 225.966, 91.765 231.969, 96.143 242.401 C 97.736 246.196, 98.797 250.064, 98.501 250.996 C 98.205 251.929, 95.472 255.569, 92.427 259.085 C 75.153 279.031, 72.390 305.442, 84.075 338.905 L 87.170 347.768 84.948 355.634 C 81.119 369.194, 82.265 383.759, 88.055 395.108 C 89.084 397.125, 92.193 401.600, 94.963 405.052 C 99.992 411.318, 100 411.339, 100 418.721 C 100 428.287, 101.302 433.485, 106.458 444.500 C 111.616 455.518, 120.532 467.498, 130.512 476.818 C 139.236 484.965, 144.688 487.906, 152.580 488.720 L 158.248 489.305 157.606 494.403 C 157.252 497.206, 156.700 500.932, 156.378 502.683 L 155.793 505.867 186.646 506.199 C 208.202 506.432, 218.433 506.185, 220.595 505.382 C 224.057 504.095, 226.273 499.694, 227.418 491.832 C 228.456 484.705, 229.016 484.500, 247.401 484.500 L 263.500 484.500 264 493.602 C 264.583 504.213, 265.601 506, 271.066 506 C 276.896 506, 278 503.683, 278 491.452 C 278 479.713, 278.357 479.138, 288.497 474.580 C 291.795 473.098, 295.443 470.993, 296.603 469.903 L 298.712 467.922 299.347 473.211 C 299.697 476.120, 299.989 482.775, 299.997 488 C 300.012 497.852, 301.219 504.399, 303.254 505.657 C 304.449 506.395, 338.142 506.191, 338.893 505.440 C 339.340 504.993, 335.113 480.361, 331.372 461.612 C 330.067 455.074, 329 449.112, 329 448.362 C 329 445.490, 335.922 446.919, 345.003 451.665 C 355.682 457.246, 362.363 458.279, 369.687 455.482 C 381.849 450.837, 411.215 424.500, 421.899 408.656 C 434.583 389.845, 437.828 376.857, 432.664 365.576 C 431.242 362.471, 428.264 357.343, 426.046 354.181 L 422.013 348.432 424.971 333.315 C 426.597 325, 428.454 314.099, 429.096 309.089 C 430.238 300.183, 430.206 299.850, 427.633 294.117 C 426.186 290.893, 424.266 284.993, 423.366 281.008 C 421.219 271.500, 417.879 267.569, 410.144 265.443 C 399.677 262.568, 400.297 263.329, 399.835 252.778 C 399.488 244.837, 399.012 242.696, 396.726 238.795 C 395.241 236.262, 392.156 232.707, 389.869 230.897 C 383.464 225.824, 379.350 214.452, 382.076 209.358 C 383.122 207.403, 383.149 206.468, 382.202 204.952 C 380.422 202.101, 380.635 193.077, 382.500 192.362 C 384.630 191.544, 384.361 186.636, 382.072 184.565 C 380.722 183.344, 377.765 182.658, 372.207 182.277 C 357.771 181.287, 351.612 183.358, 350.406 189.608 C 349.918 192.140, 350.170 192.811, 351.769 193.229 C 353.412 193.659, 353.753 194.683, 353.864 199.520 C 353.937 202.698, 353.482 205.919, 352.852 206.679 C 351.991 207.716, 351.991 208.685, 352.853 210.577 C 353.484 211.961, 354 214.538, 354 216.304 C 354 222.841, 352.139 226.341, 345.105 233.035 C 340.305 237.602, 337.842 240.805, 337.015 243.551 C 336.362 245.723, 335.581 254.588, 335.282 263.250 C 334.982 271.913, 334.414 279, 334.019 279 C 333.625 279, 330.872 274.399, 327.901 268.775 C 320.468 254.702, 310.823 244.802, 299.347 239.463 L 291.193 235.671 291.235 229.042 C 291.291 219.967, 288.746 214.706, 279.703 205.213 C 271.298 196.390, 269.576 192.540, 270.196 183.961 C 270.549 179.085, 271.366 177.009, 275.195 171.249 C 281.274 162.108, 283.281 157.955, 285.949 149 C 287.178 144.875, 290.782 135.875, 293.959 129 C 300.137 115.627, 301.478 111.223, 302.483 101 C 304.293 82.582, 293.524 57.837, 275.991 40.129 C 253.311 17.224, 221.280 5.161, 205.467 13.569 M 216.086 68.396 C 215.449 69.164, 213.912 72.891, 212.672 76.678 C 207.740 91.735, 198.123 103.963, 185.698 110.975 C 179.889 114.254, 179.719 114.525, 178.508 122.500 C 177.398 129.802, 175.972 132.969, 173.515 133.585 C 169.988 134.471, 167.266 132.459, 164.436 126.874 C 161.198 120.485, 154.774 113.466, 150.942 112.130 C 146.615 110.621, 142.982 113.983, 142.288 120.137 C 140.357 137.272, 158.610 158.096, 170.149 151.920 C 173.130 150.325, 175.288 152.791, 179.028 162.071 C 180.781 166.417, 183.968 172.422, 186.111 175.415 C 190.120 181.014, 201.493 190.263, 211.791 196.298 C 223.146 202.953, 237.575 207.635, 242.781 206.353 C 248.977 204.828, 249.612 203.891, 257.611 184.500 C 259.199 180.650, 262.974 173.450, 265.999 168.500 C 271.071 160.201, 271.498 159.033, 271.478 153.500 C 271.466 150.200, 271.089 144.422, 270.639 140.660 L 269.821 133.819 267.596 135.910 C 265.038 138.313, 262.595 138.508, 256.984 136.757 C 253.639 135.713, 253 135.083, 253 132.833 C 253 129.265, 257.474 124.120, 262.517 121.889 C 266.597 120.085, 270.174 120.246, 272.858 122.357 C 274.659 123.772, 277 120.647, 277 116.828 C 277 111.885, 271.396 111.833, 263.677 116.705 C 261.574 118.032, 259.404 118.968, 258.855 118.785 C 257.030 118.177, 261.711 113.499, 266.574 111.070 C 271.193 108.763, 271.478 108.738, 274.326 110.373 L 277.284 112.070 276.611 106.351 C 276.242 103.205, 275.460 100.054, 274.874 99.348 C 274.288 98.642, 268.564 95.286, 262.154 91.889 C 255.744 88.493, 244.614 81.971, 237.419 77.396 C 225.474 69.801, 220.257 67, 218.057 67 C 217.610 67, 216.723 67.628, 216.086 68.396 M 202.999 107.940 C 201.073 108.959, 198.646 110.734, 197.604 111.885 C 195.800 113.879, 196 113.860, 201.835 111.489 C 205.204 110.120, 209.170 109, 210.648 109 C 212.126 109, 217.081 111.025, 221.658 113.500 C 229.649 117.821, 234 119.071, 234 117.048 C 234 115.802, 226.141 110.420, 220.746 107.971 C 215.344 105.519, 207.602 105.505, 202.999 107.940 M 203.500 121.063 C 200.750 122.140, 197.380 123.887, 196.012 124.945 L 193.523 126.868 196.370 127.951 C 198.517 128.767, 198.957 129.346, 198.160 130.307 C 197.369 131.261, 197.998 132.296, 200.661 134.421 C 205.225 138.062, 210.289 139.207, 215.750 137.833 C 220.411 136.659, 221.625 134, 217.500 134 C 214.907 134, 214.339 133.086, 215.915 131.450 C 216.419 130.928, 216.981 129.375, 217.165 128 C 217.562 125.037, 220.016 125.055, 224.197 128.050 C 225.680 129.112, 227.115 129.623, 227.386 129.185 C 228.442 127.476, 225.292 123.543, 221.093 121.326 C 215.721 118.491, 210.275 118.409, 203.500 121.063 M 147.950 123.093 C 147.334 124.244, 147.132 126.382, 147.501 127.843 L 148.172 130.500 149.618 127.750 C 151.295 124.561, 152.154 124.400, 155.566 126.635 C 159.115 128.960, 159.530 127.783, 156.452 124.126 C 153.362 120.453, 149.607 119.997, 147.950 123.093 M 266.617 128.836 C 267 130.749, 266.643 132.214, 265.521 133.336 C 262.617 136.241, 265.653 135.127, 268.894 132.099 C 272.585 128.651, 272.775 127.441, 269.750 126.630 C 266.217 125.683, 266.015 125.826, 266.617 128.836 M 153.615 132.465 C 151.386 135.867, 151.515 136.367, 155.535 139.896 C 157.789 141.875, 160.144 143, 162.035 143 C 165.507 143, 165.737 141.844, 163.025 138.035 C 161.939 136.509, 160.600 134.077, 160.050 132.631 C 158.778 129.286, 155.749 129.208, 153.615 132.465 M 208.500 132 C 208.840 132.550, 209.568 133, 210.118 133 C 210.668 133, 210.840 132.550, 210.500 132 C 210.160 131.450, 209.432 131, 208.882 131 C 208.332 131, 208.160 131.450, 208.500 132 M 250.739 175.259 C 246.329 178.690, 232.439 178.792, 223.748 175.457 C 220.562 174.234, 221.830 177.613, 225.955 181.340 C 231.435 186.291, 237.499 189.173, 242.599 189.250 C 247.743 189.328, 249.264 188.211, 253.085 181.549 C 257.668 173.560, 256.601 170.699, 250.739 175.259 M 179.330 182.104 C 179.682 183.422, 180.270 190.014, 180.638 196.753 C 181.225 207.543, 181.099 209.233, 179.580 210.912 C 178.003 212.654, 177.987 213.074, 179.390 215.788 C 182.696 222.180, 200.499 239.092, 210 244.866 C 214.577 247.647, 223.759 247.826, 227.006 245.197 L 229.233 243.393 226.610 238.218 C 224.238 233.537, 222.088 221.385, 222.017 212.263 C 222.004 210.491, 220.490 209.271, 214.750 206.404 C 203.891 200.980, 191.900 192.714, 184.915 185.837 C 180.133 181.129, 178.839 180.264, 179.330 182.104 M 155.506 213.359 C 147.813 225.162, 147.669 225.700, 149.455 236.050 C 151.360 247.084, 156.964 263.976, 159.178 265.354 C 160.367 266.094, 166.417 265.870, 179.937 264.584 C 202.236 262.464, 202.603 262.555, 201.598 269.961 C 201.260 272.458, 200.052 277.305, 198.915 280.734 C 197.778 284.163, 196.994 287.649, 197.174 288.479 C 197.516 290.065, 256.962 330.372, 257.768 329.565 C 258.024 329.310, 256.086 325.365, 253.461 320.800 C 239.279 296.132, 220.474 272.155, 191.688 242.037 C 179.202 228.973, 168.940 216.418, 164.896 209.258 C 163.578 206.924, 162.152 205.012, 161.728 205.008 C 161.303 205.003, 158.503 208.762, 155.506 213.359 M 240 226.025 C 240 228.625, 241.224 232.481, 243.458 236.916 C 247.036 244.021, 250.468 255.509, 251.630 264.270 L 252.299 269.310 248.920 268.634 C 247.062 268.262, 243.897 266.352, 241.886 264.389 C 239.875 262.425, 237.992 261.204, 237.700 261.676 C 235.885 264.612, 245.357 289, 248.313 289 C 251.101 289, 252.472 292.327, 253.121 300.664 C 253.713 308.284, 254.377 310.327, 260.306 322.780 C 263.899 330.326, 267.410 338.300, 268.108 340.500 L 269.377 344.500 270.737 339.500 C 271.484 336.750, 275.476 324.045, 279.607 311.266 C 284.250 296.903, 286.809 287.504, 286.309 286.647 C 285.864 285.885, 282.350 282.532, 278.500 279.197 C 272.264 273.794, 264 264.359, 264 262.641 C 264 262.288, 267.262 261.968, 271.250 261.930 C 283.780 261.808, 283.815 261.638, 273.500 251.009 C 261.602 238.749, 243.037 222, 241.346 222 C 240.441 222, 240 223.319, 240 226.025 M 131.057 240.516 C 127.152 244.100, 119.487 249.979, 114.025 253.581 C 103.088 260.793, 99.243 264.614, 95.511 271.978 C 86.096 290.558, 86.289 316.874, 96.002 339.004 C 97.651 342.761, 99 346.814, 99 348.010 C 99 349.207, 97.821 353.507, 96.380 357.567 C 94.088 364.020, 93.812 366.114, 94.177 374.224 C 94.688 385.556, 97.508 392.461, 104.808 400.253 C 111.548 407.446, 112 408.610, 112 418.778 C 112 431.006, 115.141 439.859, 124.318 453.500 C 129.692 461.487, 141.440 473.173, 146.883 475.945 C 152.867 478.992, 162.817 478.990, 171.455 475.941 L 177.787 473.705 181.644 476.103 C 185.294 478.372, 186.326 478.497, 201 478.437 C 219.406 478.363, 232.969 476.530, 257 470.872 C 283.189 464.705, 285.028 464.126, 288.067 461.087 C 292 457.154, 293.293 451.252, 293.235 437.500 C 293.177 423.651, 291.213 413.023, 287.230 405 C 283.387 397.258, 281.094 396.206, 271.820 397.930 C 267.794 398.678, 258.554 399.583, 251.286 399.941 C 238.380 400.575, 237.972 400.666, 233.786 403.827 C 215.392 417.716, 208.686 419.228, 195.674 412.425 L 190.792 409.872 187.146 412.293 C 182.839 415.153, 166.251 431.369, 160.337 438.500 C 156.590 443.018, 156.037 443.353, 154.602 441.971 C 152.560 440.005, 153.688 435.719, 158.028 428.956 C 161.904 422.916, 167.328 417.961, 174.482 413.923 C 177.517 412.210, 180 410.550, 180 410.233 C 180 409.917, 179.358 408.947, 178.573 408.079 C 177.787 407.210, 176.325 404.039, 175.323 401.032 C 173.478 395.498, 171.182 393.195, 161.813 387.479 C 157.938 385.116, 157.323 381.667, 160.691 381.188 C 161.896 381.017, 164.045 381.638, 165.466 382.570 L 168.051 384.263 166.964 381.382 C 163.825 373.061, 159.551 368.088, 149.677 361.271 C 146.676 359.199, 145 357.306, 145 355.989 C 145 351.403, 151.306 352.818, 158.321 358.977 L 161.875 362.098 159.483 354.344 C 156.513 344.719, 153.455 340.311, 144.378 332.572 C 140.461 329.232, 136.649 325.442, 135.905 324.149 C 134.719 322.086, 134.777 321.637, 136.374 320.468 C 138.981 318.562, 140.654 319.459, 148.354 326.888 C 156.153 334.411, 156.316 333.663, 149.741 320.500 C 145.232 311.472, 136.982 299.104, 128.061 288 C 124.747 283.875, 122.167 280.082, 122.328 279.571 C 122.488 279.061, 123.302 278.212, 124.137 277.685 C 129.770 274.132, 146.380 298.054, 156.120 323.748 C 157.422 327.184, 159.268 331.009, 160.222 332.248 C 161.905 334.435, 161.956 334.237, 161.978 325.441 C 162.003 314.967, 163.054 312.653, 167.549 313.164 L 170.500 313.500 170.132 327.500 C 169.774 341.119, 170.079 342.484, 172.427 337.768 C 173.484 335.645, 174.526 335.426, 188.679 334.350 C 196.997 333.717, 206.351 332.458, 209.466 331.553 C 212.581 330.647, 216 330.182, 217.063 330.520 C 219.090 331.163, 220.583 335.038, 219.696 337.350 C 218.947 339.301, 201.685 342.115, 183.500 343.250 C 179.654 343.490, 179.488 343.644, 179.190 347.241 C 178.802 351.933, 187.099 383.554, 190.621 390.801 C 194.243 398.255, 199.137 401.329, 208.192 401.841 C 216.697 402.322, 221.526 400.650, 229.486 394.469 C 232.899 391.818, 236.311 389.989, 237.870 389.974 C 256.015 389.791, 261.141 389.394, 261.935 388.106 C 262.890 386.560, 262.423 371.814, 260.936 356.560 C 259.309 339.866, 259.756 340.321, 219 313.963 C 193.434 297.429, 187.598 293.105, 187.205 290.401 C 187.043 289.286, 188.280 285.769, 189.955 282.586 C 193.253 276.315, 193.835 272.258, 191.562 271.385 C 189.887 270.743, 164.306 273.647, 158.674 275.118 C 155.969 275.825, 154.452 275.790, 153.497 274.998 C 150.718 272.691, 144.519 252.858, 141.386 236.250 C 140.715 232.691, 138.658 233.540, 131.057 240.516 M 282.916 250.657 C 286.905 254.971, 290.809 259.720, 291.591 261.212 C 293.324 264.519, 292.431 265.173, 283.750 266.959 C 280.587 267.610, 278 268.490, 278 268.915 C 278 269.340, 281.488 272.633, 285.750 276.232 C 297.889 286.484, 297.455 285.711, 294.667 292.094 C 290.507 301.618, 279.135 336.181, 276.930 346 C 275.118 354.070, 274.878 357.532, 275.333 369 C 275.628 376.425, 276.154 383.241, 276.502 384.147 C 276.886 385.146, 278.791 386.042, 281.350 386.425 C 283.668 386.773, 286.986 387.922, 288.723 388.978 L 291.881 390.898 297.624 380.199 C 300.783 374.315, 304.410 367.511, 305.684 365.081 C 308.930 358.887, 308.727 353.040, 304.991 345.143 C 303.337 341.646, 301.087 337.527, 299.992 335.988 C 297.738 332.823, 297.387 328.709, 299.250 327.298 C 299.938 326.777, 303.300 325.530, 306.722 324.526 C 314.375 322.281, 316.795 320.132, 317.643 314.832 C 318.008 312.549, 319.502 309.347, 321.011 307.615 C 322.502 305.902, 324.457 303.066, 325.354 301.313 C 327.460 297.200, 329.371 295.895, 327.997 299.508 C 327.449 300.950, 327 303.241, 327 304.598 C 327 305.956, 325.875 309.287, 324.500 312 C 320.769 319.363, 321.034 320.247, 326.750 319.509 L 331.500 318.896 326.098 323.831 C 319.561 329.803, 319.630 332, 326.358 332 C 329.141 332, 331.518 331.352, 332.775 330.250 C 334.667 328.592, 334.745 327.588, 334.254 311.084 L 333.736 293.668 329.992 289.584 C 327.934 287.338, 323.156 279.890, 319.375 273.034 C 310.333 256.638, 303.291 249.200, 294 246.231 C 290.425 245.089, 284.836 243.853, 281.581 243.484 L 275.661 242.814 282.916 250.657 M 345 259.306 L 341.500 260.500 341.500 292 L 341.500 323.500 345.832 323.811 C 348.566 324.008, 351.055 323.538, 352.582 322.538 L 355 320.954 355 301.634 C 355 291.008, 354.706 276.843, 354.346 270.157 L 353.693 258 351.096 258.056 C 349.668 258.087, 346.925 258.650, 345 259.306 M 399.194 273.024 C 384.504 276.872, 373 283.206, 373 287.444 C 373 292.166, 376.603 292.089, 394.463 286.988 C 411.111 282.233, 412.714 282.116, 414.025 285.565 C 415.533 289.532, 415.348 289.713, 409.750 289.737 C 398.434 289.786, 374 300.867, 374 305.950 C 374 308.639, 376.616 310.331, 379.752 309.670 C 381.264 309.351, 389.441 307.496, 397.924 305.548 C 412.331 302.238, 413.468 302.114, 415.174 303.657 C 417.671 305.918, 417.468 308, 414.750 308.001 C 411.270 308.003, 392.283 312.803, 388.963 314.519 C 385.297 316.415, 385.118 319.376, 388.533 321.614 C 390.621 322.982, 392.599 323.162, 399.783 322.640 C 404.577 322.291, 409.957 321.729, 411.738 321.391 C 416.796 320.431, 416.975 323.086, 412.217 328.491 C 408.545 332.662, 406.009 338.857, 405.994 343.693 C 405.983 347.416, 403.835 353.042, 401.255 356.109 C 398.004 359.972, 388.532 364.597, 380.726 366.133 C 377.550 366.758, 374.728 367.632, 374.454 368.074 C 373.525 369.578, 377.154 384.384, 379.979 390.614 C 383.373 398.099, 390.316 406, 393.500 406 C 396.183 406, 402.929 399.020, 405.929 393.139 C 408.432 388.233, 408.551 383.423, 406.343 376.419 L 404.686 371.162 407.317 368.036 C 408.764 366.316, 410.424 363.017, 411.007 360.705 C 411.590 358.392, 413.166 353.350, 414.508 349.500 C 417.701 340.346, 420.649 326.064, 422.034 313.035 C 422.647 307.279, 423.363 302.222, 423.626 301.797 C 423.889 301.371, 423.186 298.948, 422.064 296.411 C 420.942 293.874, 419.511 288.807, 418.885 285.149 C 417.092 274.682, 414.406 270.922, 408.816 271.055 C 407.542 271.085, 403.212 271.971, 399.194 273.024 M 298.552 272.916 C 296.515 276.212, 315.654 305, 319.882 305 C 320.497 305, 321 304.600, 321 304.110 C 321 302.095, 308.266 280.448, 304.691 276.387 C 300.780 271.943, 299.574 271.261, 298.552 272.916 M 330.250 335.802 C 326.425 337.639, 325.963 340, 329.429 340 C 332.924 340, 336.534 336.016, 334.250 334.679 C 333.837 334.438, 332.038 334.943, 330.250 335.802 M 331.750 342.617 C 330.238 343.413, 329 344.452, 329 344.927 C 329 348.138, 333.393 359.020, 335.481 360.982 C 336.866 362.284, 338 363.667, 338 364.055 C 338 364.444, 333.033 367.353, 326.963 370.519 C 313.633 377.473, 309.131 382.035, 305.932 391.827 C 304.734 395.497, 302.623 399.713, 301.241 401.196 L 298.730 403.892 300.458 410.696 C 301.409 414.438, 302.435 421.002, 302.739 425.283 L 303.290 433.066 308.895 432.434 C 311.978 432.087, 319 432.329, 324.500 432.973 C 334.961 434.197, 340.095 436.108, 349.395 442.239 C 356.195 446.723, 363.643 446.810, 370.302 442.483 C 375.724 438.960, 389.678 428.496, 395.878 423.304 L 400.256 419.638 394.302 418.008 C 386.263 415.807, 381.640 412.762, 376.990 406.603 C 369.753 397.018, 365 383.613, 365 372.790 C 365 368.544, 364.633 367, 363.625 367 C 362.869 367, 360.844 366.719, 359.126 366.375 C 356.261 365.802, 355.878 366.048, 354.501 369.343 C 353.652 371.375, 353 375.973, 353 379.928 L 353 386.920 349.206 388.056 C 344.837 389.365, 331.952 387.355, 331.252 385.256 C 330.823 383.969, 333.456 381.185, 339.342 376.701 C 341.363 375.162, 344.179 371.606, 345.602 368.800 L 348.187 363.697 343.582 359.761 C 338.125 355.097, 336.991 353.196, 335.570 346.335 L 334.500 341.169 331.750 342.617 M 248.434 347.407 C 247.506 351.104, 249.612 354.180, 252.817 353.810 C 254.922 353.567, 255.569 352.894, 255.822 350.690 C 256.221 347.212, 254.500 345, 251.397 345 C 249.739 345, 248.859 345.715, 248.434 347.407 M 418.305 367 C 418.505 369.475, 419.276 373.599, 420.019 376.165 C 421.353 380.775, 421.317 380.944, 416.936 390.641 C 414.498 396.038, 411.490 401.946, 410.252 403.771 C 407.503 407.821, 407.447 408.366, 409.915 407.045 C 412.509 405.657, 424 382.919, 424 379.175 C 424 377.537, 422.637 373.116, 420.971 369.349 L 417.942 362.500 418.305 367 M 353.869 400.545 C 352.421 401.312, 350.963 402.655, 350.627 403.530 C 350.125 404.838, 350.679 405.065, 353.750 404.810 C 356.447 404.586, 357.581 403.985, 357.835 402.644 C 358.370 399.827, 356.795 398.994, 353.869 400.545 M 153 401.743 C 144.700 405.864, 132.702 421.176, 134.369 425.520 C 135.500 428.467, 138.354 426.588, 143.966 419.201 C 147.010 415.194, 152.115 409.881, 155.312 407.394 C 158.509 404.908, 160.949 402.339, 160.734 401.687 C 160.120 399.823, 156.820 399.847, 153 401.743 M 347.480 417.032 C 347.092 417.660, 347.245 418.645, 347.820 419.220 C 349.164 420.564, 352.297 419.392, 351.750 417.749 C 351.194 416.078, 348.364 415.602, 347.480 417.032" stroke="none" fill='#000000' fill-rule="evenodd"/>
</svg>